<svg width="20" height="16" viewBox="0 0 20 16" fill="none" xmlns="http://www.w3.org/2000/svg">
<g clip-path="url(#clip0_2524:182)">
<path d="M19.999 1.89525C19.4421 2.71111 18.7588 3.40659 17.9492 3.9817C17.9572 4.13594 17.9612 4.31027 17.9612 4.50469C17.9612 5.58493 17.8013 6.66649 17.4814 7.74934C17.1616 8.83221 16.673 9.86871 16.0158 10.8588C15.3585 11.849 14.5756 12.7261 13.667 13.4903C12.7584 14.2545 11.6662 14.8639 10.3905 15.3183C9.11474 15.7728 7.74749 16 6.28872 16C4.01208 16 1.91551 15.3947 -0.000976562 14.1841C0.339177 14.2214 0.665413 14.24 0.977732 14.24C2.87968 14.24 4.57843 13.6631 6.07398 12.5092C5.18718 12.4932 4.39299 12.2244 3.6914 11.7027C2.98981 11.181 2.50699 10.5144 2.24294 9.70286C2.50393 9.75182 2.76152 9.7763 3.01571 9.7763C3.3816 9.7763 3.74163 9.72931 4.0958 9.63531C3.14942 9.44864 2.36432 8.98443 1.74049 8.24267C1.11669 7.50092 0.80479 6.6448 0.80479 5.6743V5.62429C1.38568 5.94104 2.00529 6.10954 2.66362 6.12976C2.103 5.76167 1.65851 5.28168 1.33015 4.68978C1.00177 4.09787 0.837575 3.45733 0.837575 2.76814C0.837575 2.04129 1.02252 1.36444 1.3924 0.737616C2.42157 1.98142 3.66862 2.97551 5.13356 3.71989C6.59852 4.46427 8.17014 4.87768 9.84843 4.96011C9.77685 4.66632 9.74099 4.35973 9.74086 4.04035C9.74086 2.92519 10.1416 1.97301 10.943 1.18381C11.7444 0.394603 12.7113 0 13.8436 0C15.0291 0 16.0277 0.425125 16.8393 1.27538C17.7666 1.09448 18.6349 0.767285 19.4441 0.293792C19.1323 1.26009 18.5316 2.00551 17.6419 2.53008C18.4596 2.43438 19.2453 2.22277 19.999 1.89525H19.999Z" fill="white"/>
</g>
<defs>
<clipPath id="clip0_2524:182">
<rect width="20" height="16" fill="white"/>
</clipPath>
</defs>
</svg>
