<svg width="24" height="24" viewBox="0 0 24 24" fill="none" xmlns="http://www.w3.org/2000/svg">
<path d="M3.46967 15.4697C3.17678 15.7626 3.17678 16.2375 3.46967 16.5304C3.76256 16.8233 4.23744 16.8233 4.53033 16.5304L3.46967 15.4697ZM20 16L20.5303 16.5304C20.671 16.3897 20.75 16.1989 20.75 16H20ZM20 4.00003H20.75C20.75 3.69668 20.5673 3.42321 20.287 3.30712C20.0068 3.19104 19.6842 3.2552 19.4697 3.4697L20 4.00003ZM4 4.00003L3.46967 3.4697C3.32902 3.61035 3.25 3.80112 3.25 4.00003H4ZM3.25 21C3.25 21.4142 3.58579 21.75 4 21.75C4.41421 21.75 4.75 21.4142 4.75 21H3.25ZM4 16C4.53033 16.5304 4.52995 16.5307 4.52956 16.5311C4.52944 16.5312 4.52906 16.5316 4.52882 16.5319C4.52833 16.5324 4.52785 16.5328 4.52739 16.5333C4.52647 16.5342 4.5256 16.535 4.52479 16.5358C4.52317 16.5374 4.52178 16.5388 4.52062 16.5399C4.5183 16.5421 4.5169 16.5434 4.51647 16.5438C4.51559 16.5445 4.51856 16.5418 4.52561 16.536C4.53968 16.5244 4.57021 16.5004 4.61915 16.4678C4.71676 16.4027 4.88946 16.302 5.15354 16.1964C5.68039 15.9857 6.58454 15.75 8 15.75V14.25C6.41546 14.25 5.31961 14.5144 4.59646 14.8037C4.23554 14.948 3.97074 15.0973 3.7871 15.2197C3.69542 15.2809 3.62438 15.335 3.57205 15.3781C3.54589 15.3997 3.52445 15.4184 3.50746 15.4338C3.49897 15.4416 3.49159 15.4485 3.4853 15.4545C3.48216 15.4575 3.47929 15.4602 3.47668 15.4628C3.47538 15.464 3.47414 15.4653 3.47298 15.4664C3.47239 15.467 3.47182 15.4676 3.47127 15.4681C3.471 15.4684 3.4706 15.4688 3.47046 15.4689C3.47006 15.4693 3.46967 15.4697 4 16ZM8 15.75C9.33552 15.75 10.4579 16.191 11.7215 16.6964C12.9579 17.191 14.3355 17.75 16 17.75V16.25C14.6645 16.25 13.5421 15.8091 12.2785 15.3037C11.0421 14.8091 9.66448 14.25 8 14.25V15.75ZM16 17.75C17.5845 17.75 18.6804 17.4857 19.4035 17.1964C19.7645 17.052 20.0293 16.9027 20.2129 16.7803C20.3046 16.7192 20.3756 16.665 20.428 16.6219C20.4541 16.6004 20.4756 16.5817 20.4925 16.5662C20.501 16.5585 20.5084 16.5516 20.5147 16.5456C20.5178 16.5426 20.5207 16.5398 20.5233 16.5373C20.5246 16.536 20.5259 16.5348 20.527 16.5336C20.5276 16.5331 20.5282 16.5325 20.5287 16.532C20.529 16.5317 20.5294 16.5313 20.5295 16.5311C20.5299 16.5308 20.5303 16.5304 20 16C19.4697 15.4697 19.4701 15.4693 19.4704 15.4689C19.4706 15.4688 19.4709 15.4684 19.4712 15.4682C19.4717 15.4677 19.4721 15.4672 19.4726 15.4668C19.4735 15.4659 19.4744 15.465 19.4752 15.4642C19.4768 15.4626 19.4782 15.4613 19.4794 15.4602C19.4817 15.458 19.4831 15.4567 19.4835 15.4563C19.4844 15.4555 19.4814 15.4582 19.4744 15.4641C19.4603 15.4756 19.4298 15.4996 19.3808 15.5322C19.2832 15.5973 19.1105 15.698 18.8465 15.8037C18.3196 16.0144 17.4155 16.25 16 16.25V17.75ZM20.75 16V4.00003H19.25V16H20.75ZM20 4.00003C19.4697 3.4697 19.4701 3.46932 19.4704 3.46894C19.4706 3.46881 19.4709 3.46844 19.4712 3.46819C19.4717 3.46771 19.4721 3.46723 19.4726 3.46678C19.4735 3.46587 19.4744 3.46501 19.4752 3.46422C19.4768 3.46264 19.4782 3.4613 19.4794 3.46019C19.4817 3.45798 19.4831 3.4567 19.4835 3.45631C19.4844 3.45551 19.4814 3.45825 19.4744 3.46405C19.4603 3.47564 19.4298 3.49962 19.3808 3.53224C19.2832 3.59732 19.1105 3.69804 18.8465 3.80367C18.3196 4.01441 17.4155 4.25003 16 4.25003V5.75003C17.5845 5.75003 18.6804 5.48565 19.4035 5.19639C19.7645 5.05202 20.0293 4.90274 20.2129 4.78032C20.3046 4.7192 20.3756 4.66505 20.428 4.62195C20.4541 4.60041 20.4756 4.58166 20.4925 4.56622C20.501 4.5585 20.5084 4.5516 20.5147 4.54561C20.5178 4.54261 20.5207 4.53983 20.5233 4.53729C20.5246 4.53602 20.5259 4.5348 20.527 4.53365C20.5276 4.53307 20.5282 4.53251 20.5287 4.53196C20.529 4.53169 20.5294 4.53129 20.5295 4.53115C20.5299 4.53075 20.5303 4.53036 20 4.00003ZM16 4.25003C14.6645 4.25003 13.5421 3.8091 12.2785 3.30367C11.0421 2.8091 9.66448 2.25003 8 2.25003V3.75003C9.33552 3.75003 10.4579 4.19096 11.7215 4.69639C12.9579 5.19096 14.3355 5.75003 16 5.75003V4.25003ZM8 2.25003C6.41546 2.25003 5.31961 2.51441 4.59646 2.80367C4.23554 2.94804 3.97074 3.09732 3.7871 3.21974C3.69542 3.28087 3.62438 3.33502 3.57205 3.37811C3.54589 3.39965 3.52445 3.4184 3.50746 3.43384C3.49897 3.44157 3.49159 3.44846 3.4853 3.45446C3.48216 3.45745 3.47929 3.46023 3.47668 3.46277C3.47538 3.46405 3.47414 3.46526 3.47298 3.46641C3.47239 3.46699 3.47182 3.46755 3.47127 3.4681C3.471 3.46838 3.4706 3.46878 3.47046 3.46891C3.47006 3.46931 3.46967 3.4697 4 4.00003C4.53033 4.53036 4.52995 4.53075 4.52956 4.53113C4.52944 4.53125 4.52906 4.53162 4.52882 4.53187C4.52833 4.53235 4.52785 4.53283 4.52739 4.53328C4.52647 4.5342 4.5256 4.53505 4.52479 4.53584C4.52317 4.53742 4.52178 4.53876 4.52062 4.53987C4.5183 4.54208 4.5169 4.54336 4.51647 4.54376C4.51559 4.54455 4.51856 4.54181 4.52561 4.53601C4.53968 4.52442 4.57021 4.50045 4.61915 4.46782C4.71676 4.40274 4.88946 4.30202 5.15354 4.19639C5.68039 3.98565 6.58454 3.75003 8 3.75003V2.25003ZM3.25 4.00003V21H4.75V4.00003H3.25Z" fill="#FF7B42"/>
</svg>
