<svg width="24" height="24" viewBox="0 0 24 24" fill="none" xmlns="http://www.w3.org/2000/svg">
<path d="M23 21V19C23 16.7909 21.2091 15 19 15H18.5M15 11C17.2091 11 19 9.20917 19 7.00003C19 4.79089 17.2091 3.00003 15 3.00003M17 21V19C17 16.7909 15.2091 15 13 15H5C2.79086 15 1 16.7909 1 19V21M13 7.00003C13 9.20917 11.2091 11 9 11C6.79086 11 5 9.20917 5 7.00003C5 4.79089 6.79086 3.00003 9 3.00003C11.2091 3.00003 13 4.79089 13 7.00003Z" stroke="#FF7B42" stroke-width="1.5" stroke-linecap="round" stroke-linejoin="round"/>
</svg>
